<svg viewBox="0 0 32 32" fill="none" xmlns="http://www.w3.org/2000/svg">
  <!-- Dark background circle -->
  <circle cx="16" cy="16" r="16" fill="#0d1117"/>
  <!-- Ascending bars + flame, scaled to fit -->
  <g transform="translate(16, 18) scale(1.05) translate(-12, -14)">
    <rect x="3" y="17" width="4" height="5" rx="1" fill="#2dd4a8" opacity="0.4"/>
    <rect x="10" y="13" width="4" height="9" rx="1" fill="#2dd4a8" opacity="0.65"/>
    <rect x="17" y="10" width="4" height="12" rx="1" fill="#2dd4a8" opacity="0.9"/>
    <path d="M19 10c0 0-2.8-3.5-2.8-6.3c0-1.5 0.8-2.7 1.5-3.3c0.3 1.1 1.1 2 1.9 2.7c0.8 0.8 1.5 1.7 1.5 3c0 2-1.2 3.9-2.1 3.9z" fill="#2dd4a8"/>
    <path d="M19 10c0 0-1.2-1.5-1.2-2.8c0-0.7 0.35-1.2 0.6-1.5c0.13 0.5 0.5 0.9 0.85 1.2c0.35 0.35 0.65 0.8 0.65 1.5c0 0.9-0.5 1.6-0.9 1.6z" fill="#0d1117" opacity="0.85"/>
  </g>
</svg>
