<svg width="32" height="32" viewBox="0 0 32 32" fill="none" xmlns="http://www.w3.org/2000/svg">
  <rect width="32" height="32" rx="6" fill="#0f1720"/>
  <path d="M16 6C16 6 21 12.5 21 18C21 21.3 18.8 24 16 24C13.2 24 11 21.3 11 18C11 15.5 12 13 12 13C12 13 13.5 15 14 17C14.5 14 16 10 16 6Z" stroke="#2bb5a0" stroke-width="1.8" stroke-linecap="round" stroke-linejoin="round"/>
  <path d="M14 19C14 17.5 15 16 16 15C17 16.5 18 17.5 18 19C18 20.1 17.1 21 16 21C14.9 21 14 20.1 14 19Z" stroke="#2bb5a0" stroke-width="1.5" stroke-linecap="round" stroke-linejoin="round"/>
</svg>
