<svg width="32" height="32" viewBox="0 0 32 32" fill="none" xmlns="http://www.w3.org/2000/svg">
  <rect width="32" height="32" rx="6" fill="#0f1720"/>
  <!-- Bar chart base - three ascending bars -->
  <rect x="5" y="21" width="5" height="7" rx="1" fill="#2bb5a0" opacity="0.6"/>
  <rect x="13" y="16" width="5" height="12" rx="1" fill="#2bb5a0" opacity="0.8"/>
  <rect x="21" y="18" width="5" height="10" rx="1" fill="#2bb5a0"/>
  <!-- Flame on the tallest bar -->
  <path d="M23.5 18c0 0-3-3.6-3-6.6c0-1.8 1-3.4 1.8-4.2c0.36 1.44 1.44 2.4 2.4 3.36c0.96 0.96 1.8 2.16 1.8 3.84c0 2.4-1.44 3.6-3 3.6z" fill="#2bb5a0"/>
  <path d="M23.5 18c0 0-1.44-1.8-1.44-3.36c0-0.96 0.48-1.68 0.84-2.04c0.18 0.72 0.72 1.2 1.2 1.68c0.48 0.48 0.84 1.08 0.84 1.92c0 1.2-0.72 1.8-1.44 1.8z" fill="#0f1720" opacity="0.9"/>
</svg>
